<?xml version="1.0" encoding="UTF-8"?>
<svg width="220" height="220" viewBox="0 0 220 220" xmlns="http://www.w3.org/2000/svg">
  <defs>
    <radialGradient id="fur" cx="50%" cy="50%" r="60%">
      <stop offset="0%" stop-color="#fff7e6"/>
      <stop offset="100%" stop-color="#c58b55"/>
    </radialGradient>
  </defs>
  <!-- Head -->
  <circle cx="110" cy="90" r="55" fill="url(#fur)" stroke="#8b5a2b" stroke-width="3"/>
  <!-- Ears -->
  <circle cx="65" cy="55" r="22" fill="url(#fur)" stroke="#8b5a2b" stroke-width="3"/>
  <circle cx="155" cy="55" r="22" fill="url(#fur)" stroke="#8b5a2b" stroke-width="3"/>
  <!-- Eyes -->
  <circle cx="90" cy="90" r="6" fill="#333"/>
  <circle cx="130" cy="90" r="6" fill="#333"/>
  <!-- Nose + mouth -->
  <ellipse cx="110" cy="105" rx="12" ry="8" fill="#333"/>
  <path d="M110 113 q-12 10 -24 0" stroke="#333" stroke-width="3" fill="none"/>
  <path d="M110 113 q12 10 24 0" stroke="#333" stroke-width="3" fill="none"/>
  <!-- Body -->
  <ellipse cx="110" cy="160" rx="55" ry="45" fill="url(#fur)" stroke="#8b5a2b" stroke-width="3"/>
  <!-- Arms -->
  <ellipse cx="60" cy="150" rx="20" ry="30" fill="url(#fur)" stroke="#8b5a2b" stroke-width="3"/>
  <ellipse cx="160" cy="150" rx="20" ry="30" fill="url(#fur)" stroke="#8b5a2b" stroke-width="3"/>
  <!-- Heart -->
  <path d="M110 150 s-18-12-26-22 c-6-8-1-18 8-19 8-1 15 3 18 9 3-6 10-10 18-9 9 1 14 11 8 19-8 10-26 22-26 22z" fill="#ff6fb7"/>
</svg>
